/* XPM */
static char *result[] = {
/* columns rows colors chars-per-pixel */
"32 32 222 2 ",
"   c #1E1A0D",
".  c #14120F",
"X  c #211D0E",
"o  c #29230F",
"O  c #3D2C0E",
"+  c #3F300E",
"@  c #2C2512",
"#  c #2F2815",
"$  c #28251E",
"%  c #332B13",
"&  c #3B2D12",
"*  c #352F1B",
"=  c #3C3214",
"-  c #3A321A",
";  c #36301B",
":  c #292722",
">  c #353223",
",  c #3B3523",
"<  c #3E3924",
"1  c #3C372A",
"2  c #39362B",
"3  c #383736",
"4  c #422E0B",
"5  c #45330D",
"6  c #4D3A0E",
"7  c #523E0E",
"8  c #433614",
"9  c #453A14",
"0  c #4A3B13",
"q  c #443A1C",
"w  c #4B3E1B",
"e  c #413618",
"r  c #443C23",
"t  c #433C2A",
"y  c #423E32",
"u  c #4E421A",
"i  c #544313",
"p  c #594513",
"a  c #5D4B15",
"s  c #55461A",
"d  c #5C4A1A",
"f  c #58491B",
"g  c #57400E",
"h  c #634D14",
"j  c #624E1B",
"k  c #635016",
"l  c #64511B",
"z  c #6B561C",
"x  c #6E5618",
"c  c #725B1B",
"v  c #795F1C",
"b  c #765D17",
"n  c #7B621C",
"m  c #77611C",
"M  c #46412D",
"N  c #4B432A",
"B  c #4E482D",
"V  c #4D4324",
"C  c #524523",
"Z  c #534A24",
"A  c #5C4D23",
"S  c #534629",
"D  c #524A2C",
"F  c #5B4D2C",
"G  c #5C512B",
"H  c #4C4534",
"J  c #4E4931",
"K  c #494538",
"L  c #534E38",
"P  c #55513E",
"I  c #5C553B",
"U  c #585037",
"Y  c #614E24",
"T  c #635423",
"R  c #6A5625",
"E  c #6F5A23",
"W  c #62532B",
"Q  c #6A5A2C",
"!  c #67582C",
"~  c #735E2B",
"^  c #725B26",
"/  c #6A5D33",
"(  c #655D3A",
")  c #655937",
"_  c #756225",
"`  c #73622E",
"'  c #7B662D",
"]  c #7C692D",
"[  c #7D6624",
"{  c #6B613B",
"}  c #756430",
"|  c #7D6C34",
" . c #72663C",
".. c #76693F",
"X. c #484746",
"o. c #545145",
"O. c #5C5749",
"+. c #5A5959",
"@. c #635C44",
"#. c #635F4F",
"$. c #615E53",
"%. c #69634A",
"&. c #7F754F",
"*. c #7F7447",
"=. c #656255",
"-. c #6D6A5C",
";. c #736C53",
":. c #726C5D",
">. c #7A745A",
",. c #756B48",
"<. c #686764",
"1. c #767362",
"2. c #75736B",
"3. c #716F66",
"4. c #866C1E",
"5. c #8D701E",
"6. c #856A22",
"7. c #8B6F23",
"8. c #836C2C",
"9. c #8B6D2B",
"0. c #816523",
"q. c #8E7124",
"w. c #8B732C",
"e. c #937524",
"r. c #967924",
"t. c #9A7C24",
"y. c #91742D",
"u. c #9A7B2A",
"i. c #836F34",
"p. c #897436",
"a. c #937B33",
"s. c #917C3E",
"d. c #9C7F33",
"f. c #A47F27",
"g. c #897B48",
"h. c #827A51",
"j. c #837E5C",
"k. c #877B57",
"l. c #997643",
"z. c #817662",
"x. c #9D8638",
"c. c #9D802A",
"v. c #A38326",
"b. c #A88528",
"n. c #B48C29",
"m. c #B4892A",
"M. c #B5912B",
"N. c #BD962B",
"B. c #AA8C38",
"V. c #AC923A",
"C. c #B69738",
"Z. c #CC9F2E",
"A. c #C29B2A",
"S. c #C29D3C",
"D. c #C59C36",
"F. c #CEA22A",
"G. c #C2A12D",
"H. c #D5A52A",
"J. c #DCAB29",
"K. c #D5A72A",
"L. c #CCA13E",
"P. c #D2A331",
"I. c #D3A63A",
"U. c #D1B13B",
"Y. c #CBB73A",
"T. c #E3B427",
"R. c #E3B328",
"E. c #E9BA28",
"W. c #EBBA27",
"Q. c #E9BE36",
"!. c #E6BD3D",
"~. c #D8C237",
"^. c #F3C228",
"/. c #F1C330",
"(. c #EDC33F",
"). c #94834B",
"_. c #998643",
"`. c #9F934F",
"'. c #8B815B",
"]. c #93855A",
"[. c #9A8C5B",
"{. c #988656",
"}. c #9C905E",
"|. c #A78B48",
" X c #B08F4E",
".X c #A8965B",
"XX c #B9A65D",
"oX c #B9A140",
"OX c #868164",
"+X c #978B66",
"@X c #9B946B",
"#X c #A79C65",
"$X c #B19F75",
"%X c #BAA868",
"&X c #A9A37A",
"*X c #BFB173",
"=X c #B5A86F",
"-X c #CDAC44",
";X c #C8A343",
":X c #CFB24E",
">X c #C2A95A",
",X c #D2B650",
"<X c #C8AE76",
"1X c #D7C75E",
"2X c #EDC544",
"3X c #EFCB51",
"4X c #F2D251",
"5X c #EBCE6B",
"6X c #E7CA66",
"7X c #F1D97A",
"8X c #F4D870",
"9X c #ACA780",
"0X c #C3B983",
"qX c #CBC494",
"wX c #DBD092",
"eX c #F1DC88",
"rX c #EED782",
"tX c #F2E39A",
"yX c #EEE395",
"uX c #EAE3AB",
"iX c #F4E7A7",
"pX c None",
/* pixels */
"pXpXpXpXpXpXpXpXpXpXpXpXL.L.I.L.L.:XL.I.pXpXpXpXpXpXpXpXpXpXpXpX",
"pXpXpXpXpXpXpXpXpXK.P.P.C.|.{.k.k.l. XL.P.L.P.pXpXpXpXpXpXpXpXpX",
"pXpXpXpXpXpXpXK.G.G.x.%.=.:.j..Xz.:.$.X.%.p.A.K.J.pXpXpXpXpXpXpX",
"pXpXpXpXpXpXJ.K.c.O.O.;.].%X<X$Xz.3.-.=.O.o.K } H.J.pXpXpXpXpXpX",
"pXpXpXpXpXJ.F.) X.@.*.XX5X7XyXuXiXwX*X[.,.U ( P t M.R.pXpXpXpXpX",
"pXpXpXpXR.F.H ( @.x.~.4X1XXX@X>.z.z.@X>X:XB./ U H : v.E.pXpXpXpX",
"pXpXpXT.J.M y  .x.~.~.`.].}.@X&X9X#Xg.) ` C.N.] t 2 > b.W.pXpXpX",
"pXpXT.^.G B J a.G.V. .x._.).h.j.z.k.g.l.x.f n N.[ M M ; K.W.pXpX",
"pXpX/.c.t F ' n.p.| v.w.] I { ( @.( / ` 8.e.v a n.R *   f /.pXpX",
"pX!.(.2 W S m.d.} t.4._ G D B B B S Z A R c 5.n x t.r , r M.2XpX",
"pX3Xx.< t y.f.W r.n c l V V - < < q w w i k v 5.i 7.0.q - q 3XpX",
"pX8XG N F m.~ 7._ c a u u - - ; ; ; = 9 0 p h n e.0 n.R r # ,XpX",
"5X5X: w ~ m.A 7.m k i = = % # # % % & 5 5 6 i l 4.s n.9.C   _.5X",
"rX%X: S 9.a.R 4.x a u = % @ o @ % O O 4 4 5 7 p v 0.c B.Y   ) eX",
"yX+X$ Y f.~ 8.0.k i 9 = @ o @ # & 4 4 4 4 5 6 s c q.d S.Y @ - tX",
"iXj.$ W m.Y y.,./ z T G G ` ] ] ~ E j } ! w W ( ` d.l L.R i # iX",
"tX'.W A b.A x.I %.;.>.I I I { { / ~ ' R A ! W ! ` { l -X^ . @ tX",
"eX{.> S f.W q.] T T f u q = u = 0 p 7 7 6 i c x m e.j -X^   - eX",
"7X%X> W 9.9._ 6.k k u = % @ @ # # & 4 4 + 5 6 h m 7.z D.T . W 7X",
"6X1X> N ~ n.G q.m k f 9 ; # # # # % & e 5 6 g x 6.l v.d.j o s.6X",
"pX8Xr C D M.Q r.[ m k u q ; ; ; * - = 8 0 i p m e.6 n.8.w & ;XpX",
"pX2Xa.1 2 w.c.! c.[ m T Z r < < r r q w p h m 5.z b [ Y w 8 2XpX",
"pX(.Q.S 3 G b.] i.c.[ _ G G D J H D S A R n 5.q.i f.C A e v.!.pX",
"pXpX^.e.: M ] M.] c.v.| |  .{ @.@.( / } 8.r.r.i M.' < Z s E.pXpX",
"pXpXE.W.F P U i.N.x.p.V.|.).'.j.OXh.*.x.V.6.^ U.w.2 $ q A.T.pXpX",
"pXpXpXE.H.M 3 J i.A.oXh.{.#X=X&X&X#X@Xg.} S.U.~ t Z $ r.T.pXpXpX",
"pXpXpXpXT.A.K o.@.%.B.-X>X}.@XOX2.OX&.XX1XV.i.) D < 7.T.pXpXpXpX",
"pXpXpXpXpXJ.Z.I O.;.O.&.[.*X<XqXqXqX<X.X Xl.) y t t.J.pXpXpXpXpX",
"pXpXpXpXpXpXJ.J.a.o.$.-.=.:.2.2.3.>.>.'.@.) H ~ N.K.pXpXpXpXpXpX",
"pXpXpXpXpXpXpXJ.H.Z.l.>.+.+.3.<.-.&.%.O.@. .B.H.K.pXpXpXpXpXpXpX",
"pXpXpXpXpXpXpXpXpXJ.P.P.C.|.{.k.'.k.).V.D.P.P.pXpXpXpXpXpXpXpXpX",
"pXpXpXpXpXpXpXpXpXpXpXpX;XL.L.L.;XL.L.L.pXpXpXpXpXpXpXpXpXpXpXpX"
};
