/* XPM */
static char *result[] = {
/* columns rows colors chars-per-pixel */
"16 16 207 2 ",
"   c #3D2E0F",
".  c #3E2E0F",
"X  c #2E2713",
"o  c #2E2815",
"O  c #352A13",
"+  c #362A12",
"@  c #312B14",
"#  c #322B14",
"$  c #342E1D",
"%  c #3C3217",
"&  c #3F3417",
"*  c #3D3419",
"=  c #3A341E",
"-  c #3A341F",
";  c #3C341D",
":  c #3C341E",
">  c #3C3523",
",  c #47350D",
"<  c #46340E",
"1  c #463917",
"2  c #483C13",
"3  c #493D14",
"4  c #433619",
"5  c #443919",
"6  c #443B1D",
"7  c #463C1F",
"8  c #4E3E18",
"9  c #483F1E",
"0  c #4B3F1E",
"q  c #453925",
"w  c #453E26",
"e  c #413C2D",
"r  c #4F441D",
"t  c #564515",
"y  c #5C4711",
"u  c #594514",
"i  c #584515",
"p  c #52431A",
"a  c #574118",
"s  c #59451C",
"d  c #5A491C",
"f  c #604F1A",
"g  c #634E1C",
"h  c #61521B",
"j  c #65521A",
"k  c #63521F",
"l  c #685418",
"z  c #70591B",
"x  c #71591B",
"c  c #765D1A",
"v  c #775F1A",
"b  c #765D1E",
"n  c #7A601A",
"m  c #7B611F",
"M  c #7E661F",
"N  c #4E4529",
"B  c #4F482A",
"V  c #504321",
"C  c #554721",
"Z  c #524727",
"A  c #574A24",
"S  c #5A4A20",
"D  c #574C28",
"F  c #574D29",
"G  c #554B2C",
"H  c #574C2C",
"J  c #5A4E28",
"K  c #5C4F2B",
"L  c #595036",
"P  c #595236",
"I  c #595336",
"U  c #5F5635",
"Y  c #5A5338",
"T  c #5B5639",
"R  c #5C543B",
"E  c #614F21",
"W  c #6A5823",
"Q  c #63572A",
"!  c #61562D",
"~  c #63572C",
"^  c #64592F",
"/  c #745E2A",
"(  c #635534",
")  c #655A34",
"_  c #695E33",
"`  c #695F37",
"'  c #695E3F",
"]  c #776024",
"[  c #796024",
"{  c #7A6326",
"}  c #7A6524",
"|  c #7F6823",
" . c #76602A",
".. c #73612C",
"X. c #7A652C",
"o. c #726130",
"O. c #706137",
"+. c #786733",
"@. c #5F5C52",
"#. c #675F44",
"$. c #6B6142",
"%. c #686148",
"&. c #72684A",
"*. c #61605A",
"=. c #746A51",
"-. c #766D51",
";. c #76715F",
":. c #6E6C66",
">. c #7E7563",
",. c #81681C",
"<. c #856C20",
"1. c #876E20",
"2. c #856A27",
"3. c #896D22",
"4. c #896F24",
"5. c #836A29",
"6. c #836A2A",
"7. c #846B2A",
"8. c #826A2C",
"9. c #886929",
"0. c #8A6C29",
"q. c #8A7326",
"w. c #8F7526",
"e. c #857029",
"r. c #85702D",
"t. c #86722E",
"y. c #8F702B",
"u. c #8C752E",
"i. c #93732B",
"p. c #977729",
"a. c #93782D",
"s. c #97792D",
"d. c #9C7D2B",
"f. c #9A7F2E",
"g. c #9E7F2C",
"h. c #806B32",
"j. c #8F7530",
"k. c #967A30",
"l. c #837642",
"z. c #907F42",
"x. c #897C5B",
"c. c #9E8127",
"v. c #968034",
"b. c #AE8F2D",
"n. c #A58533",
"m. c #A08235",
"M. c #A48B31",
"N. c #A58833",
"B. c #AC8E30",
"V. c #BD983F",
"C. c #BAA132",
"Z. c #C19927",
"A. c #CC9F29",
"S. c #CA9D35",
"D. c #CFA228",
"F. c #D5A925",
"G. c #D7A72A",
"H. c #D8A829",
"J. c #D9AA28",
"K. c #D8AA2A",
"L. c #D9AA2A",
"P. c #CFA132",
"I. c #D1A232",
"U. c #D2A434",
"Y. c #E0B226",
"T. c #E9B927",
"R. c #EBBA27",
"E. c #8F814A",
"W. c #958246",
"Q. c #9F8A40",
"!. c #8F8354",
"~. c #968751",
"^. c #9D8E52",
"/. c #91865B",
"(. c #AA8E4C",
"). c #A19041",
"_. c #A6914C",
"`. c #AE914D",
"'. c #B49241",
"]. c #BD9840",
"[. c #B0924B",
"{. c #B4974A",
"}. c #AB9855",
"|. c #A99A5F",
" X c #918A63",
".X c #948C61",
"XX c #9A9165",
"oX c #969068",
"OX c #AD9E61",
"+X c #AD9E62",
"@X c #AB956B",
"#X c #A29D78",
"$X c #ABA379",
"%X c #BFB175",
"&X c #BFB47D",
"*X c #C09A40",
"=X c #C2AC4C",
"-X c #D9B848",
";X c #E0C154",
":X c #F3CE52",
">X c #F0CF5C",
",X c #D9C067",
"<X c #DAC76B",
"1X c #DBC470",
"2X c #B1AB81",
"3X c #BBB482",
"4X c None",
/* pixels */
"4X4X4X4X4XP.V.[.[.*XU.4X4X4X4X4X",
"4X4X4XH.n.&.x.@X>.@.#.k.G.4X4X4X",
"4X4XJ.+.$.=X<X3X2X+Xz.R K D.4X4X",
"4XT...) C.).~..X Xl.t.c.N A Y.4X",
"4XB.G g.r.q.^ I P Q } v 3.$ w.4X",
">X!  .5.M f 6 = ; 1 i n z [ * ;X",
"1X> i.] l 2 @ X + . , u b p.% }.",
"&Xq 0.8.k r 9 C s a 8 S 7.a.p /.",
"%XZ 9.h.` U B D E g d W X.f.4 !.",
",Xw y.{ j 3 # o O   < y m d.& _.",
":XH / 6.<.h 7 - : 5 t c x 2.1 -X",
"4Xb.e s.u.e._ T Y ~ | ,.4.V 1.4X",
"4XR.o.L N.Q.^.XXoXE.v.M.F 0 F.4X",
"4X4XK.O.%.W.OX$X#X|.{.( J Z.4X4X",
"4X4X4XL.m.-.*.:.;.=.' j.A.4X4X4X",
"4X4X4X4X4XI.].`.(.'.S.4X4X4X4X4X"
};
