/* XPM */
static char *result[] = {
/* columns rows colors chars-per-pixel */
"64 64 248 2 ",
"   c #0A0A09",
".  c #080705",
"X  c #110E06",
"o  c #18140A",
"O  c #1D1D1C",
"+  c #1B1913",
"@  c #251D0D",
"#  c #231F17",
"$  c #3D2D0D",
"%  c #35290F",
"&  c #2C2512",
"*  c #2F2815",
"=  c #26231B",
"-  c #332B14",
";  c #3A2E12",
":  c #332D1A",
">  c #332914",
",  c #3C3214",
"<  c #3C341B",
"1  c #38321D",
"2  c #31290F",
"3  c #242422",
"4  c #2C2A24",
"5  c #2B2B2B",
"6  c #2A2722",
"7  c #322E25",
"8  c #3C3623",
"9  c #38352A",
"0  c #353434",
"q  c #3C3B3B",
"w  c #3B3933",
"e  c #422E0C",
"r  c #44330D",
"t  c #4C3A0D",
"y  c #49350C",
"u  c #513E0E",
"i  c #433512",
"p  c #453914",
"a  c #4A3C13",
"s  c #43391C",
"d  c #4A3D1B",
"f  c #41361A",
"g  c #513F12",
"h  c #402E10",
"j  c #443C24",
"k  c #4A3E23",
"l  c #433C2B",
"z  c #453827",
"x  c #433E35",
"c  c #56420E",
"v  c #4E4118",
"b  c #544313",
"n  c #5A4512",
"m  c #5C4A14",
"M  c #53441B",
"N  c #5B4A1D",
"B  c #57481B",
"V  c #624D15",
"C  c #624E19",
"Z  c #6B5416",
"A  c #64521C",
"S  c #6B561A",
"D  c #6A5619",
"F  c #745C1B",
"G  c #775D19",
"H  c #674D0D",
"J  c #7B621D",
"K  c #77611B",
"L  c #4C4324",
"P  c #4B442B",
"I  c #4C452A",
"U  c #524523",
"Y  c #5B4C23",
"T  c #554B2B",
"R  c #574A28",
"E  c #5C512B",
"W  c #5E5225",
"Q  c #494539",
"!  c #534C33",
"~  c #544D38",
"^  c #5C5334",
"/  c #5B553B",
"(  c #5B563C",
")  c #635324",
"_  c #6C5A24",
"`  c #6C5D2C",
"'  c #665729",
"]  c #735D24",
"[  c #735E29",
"{  c #635A3B",
"}  c #665A34",
"|  c #634D2C",
" . c #73632C",
".. c #7B642A",
"X. c #7A6625",
"o. c #6C623B",
"O. c #7B6B34",
"+. c #72653A",
"@. c #776837",
"#. c #6E602B",
"$. c #444444",
"%. c #4C4C4B",
"&. c #4C4A42",
"*. c #514E46",
"=. c #575347",
"-. c #5C5C5B",
";. c #575653",
":. c #635D47",
">. c #605D55",
",. c #6B6344",
"<. c #6B654A",
"1. c #6B654A",
"2. c #746B45",
"3. c #736B4C",
"4. c #786A44",
"5. c #7C7248",
"6. c #67645A",
"7. c #736C58",
"8. c #7C7553",
"9. c #79735C",
"0. c #656463",
"q. c #6A6964",
"w. c #736E62",
"e. c #797665",
"r. c #7F7E72",
"t. c #5F6060",
"y. c #846A1C",
"u. c #85691C",
"i. c #92741E",
"p. c #846A22",
"a. c #8A6D23",
"s. c #846B2B",
"d. c #856A27",
"f. c #8D7123",
"g. c #8C732B",
"h. c #86712F",
"j. c #937424",
"k. c #9B7B24",
"l. c #9C7B29",
"z. c #967729",
"x. c #887537",
"c. c #967C34",
"v. c #846D39",
"b. c #A17E28",
"n. c #867847",
"m. c #837A54",
"M. c #92794A",
"N. c #867D65",
"B. c #817F72",
"V. c #9A8436",
"C. c #9D8024",
"Z. c #A38325",
"A. c #A4832A",
"S. c #AC8B2C",
"D. c #AA8626",
"F. c #B28C2B",
"G. c #B68E27",
"H. c #B9952B",
"J. c #A88936",
"K. c #B89737",
"L. c #AF9137",
"P. c #AF9129",
"I. c #C8972D",
"U. c #CC9C2C",
"Y. c #C3992B",
"T. c #D19E2D",
"R. c #C69C34",
"E. c #CCA32D",
"W. c #D4A42C",
"Q. c #DCAB2A",
"!. c #D7A928",
"~. c #C9A637",
"^. c #D3A533",
"/. c #D4AA38",
"(. c #D5B734",
"). c #E0AF29",
"_. c #E3B229",
"`. c #ECBB29",
"'. c #E8B728",
"]. c #E5BA37",
"[. c #F0BE27",
"{. c #D8C634",
"}. c #F6C528",
"|. c #F6C937",
" X c #EFCF33",
".X c #F7EA2C",
"XX c #988748",
"oX c #8B825A",
"OX c #968956",
"+X c #968A54",
"@X c #A48C4A",
"#X c #A89449",
"$X c #BA9A46",
"%X c #A8985A",
"&X c #B69C57",
"*X c #AA8C51",
"=X c #B7A355",
"-X c #8B8566",
";X c #928A65",
":X c #9C9366",
">X c #989273",
",X c #A69965",
"<X c #A49C75",
"1X c #AE9569",
"2X c #ACA476",
"3X c #B8AB77",
"4X c #B9AD6F",
"5X c #C9A846",
"6X c #D4AA43",
"7X c #D9B646",
"8X c #CEAA52",
"9X c #C3A955",
"0X c #D1AE54",
"qX c #D6B758",
"wX c #C9B154",
"eX c #E3BE4D",
"rX c #CBB966",
"tX c #C8B976",
"yX c #D0B16D",
"uX c #E5B66E",
"iX c #CB9B62",
"pX c #D8C74D",
"aX c #E6C547",
"sX c #FBD347",
"dX c #F9D659",
"fX c #EACB53",
"gX c #DCC46A",
"hX c #D6C472",
"jX c #E6C967",
"kX c #F9D966",
"lX c #ECD474",
"zX c #FDE277",
"xX c #FCF26E",
"cX c #FBF347",
"vX c #B4AF85",
"bX c #C6BC85",
"nX c #D3CB98",
"mX c #D3CA90",
"MX c #E8D588",
"NX c #E8D893",
"BX c #EAD484",
"VX c #FBE588",
"CX c #FCEB96",
"ZX c #FEF2A7",
"AX c #FDF6B7",
"SX c #F3ECB0",
"DX c #DBD5A6",
"FX c None",
/* pixels */
"FXFXFXFXFXFXFXFXFXFXFXFXFXFXFXFXFXFXFXFXFXFXFXFXFXFXFX0X8X8X8X8X8X8X0X0XqXFXFXFXFXFXFXFXFXFXFXFXFXFXFXFXFXFXFXFXFXFXFXFXFXFXFXFX",
"FXFXFXFXFXFXFXFXFXFXFXFXFXFXFXFXFXFXFXFXFXFX6X/./.5XR.I.I.I.I.I.I.I.I.I.I.R.6X6X6X6XFXFXFXFXFXFXFXFXFXFXFXFXFXFXFXFXFXFXFXFXFXFX",
"FXFXFXFXFXFXFXFXFXFXFXFXFXFXFXFXFXFXFXFX^.^.R.U.U.U.I.^.6X6X5XiXiX9X5X6X^.^.T.T.T.T././.FXFXFXFXFXFXFXFXFXFXFXFXFXFXFXFXFXFXFXFX",
"FXFXFXFXFXFXFXFXFXFXFXFXFXFXFXFXFXFXW.W.E.T.T.^.$X*XoXw.t.0.q.6.6.t.t.6.w.m.*X5X/.T.T.U.^.Q.FXFXFXFXFXFXFXFXFXFXFXFXFXFXFXFXFXFX",
"FXFXFXFXFXFXFXFXFXFXFXFXFXFXFXFX!.W.T.T.Q.K.M.;.;.;.-.t.6.w.N.N.w.7.7.6.>.;.=.%.=.n.L.^.E.E.!.).FXFXFXFXFXFXFXFXFXFXFXFXFXFXFXFX",
"FXFXFXFXFXFXFXFXFXFXFXFXFXFX!.W.W.W.!.L.1.%.%.;.m.-.7.m.,XN.1XuXN.N.w.w.7.;.%.%.m.=.q =.c.E.W.E.Q.Q.FXFXFXFXFXFXFXFXFXFXFXFXFXFX",
"FXFXFXFXFXFXFXFXFXFXFXFXFX!.!.!.Q.G.{ %.%.%.<.>.XX6.%X1X1X3XbXbX2X1X-Xw.;.;.%.3.3.:.*.q q ! C.Y.Q.Q.).FXFXFXFXFXFXFXFXFXFXFXFXFX",
"FXFXFXFXFXFXFXFXFXFXFXFX!.Q.Q.W.@.$.&.n.=.n.XX7.OX1XyXuXuXyXiXN.N.w.6.7.w.7.7.<.$.$.8.&.=.0 0 E S.W.Q.).FXFXFXFXFXFXFXFXFXFXFXFX",
"FXFXFXFXFXFXFXFXFXFX!.!._.).H.Q q $.$.XX=.3.+X&X4XhXlXVXCXZXSXSXAXSXSXmX3X:X6.*.,.,.Q Q 8.3.0 0 9 s.E._._.).FXFXFXFXFXFXFXFXFXFX",
"FXFXFXFXFXFXFXFXFX!.Q._._.l.q Q $.$.*.2.XX@X&XjXxXxXxXlXlXNXnXDXDXDXbXbXtXtXgXgX#X=.=.o.( w 8.,.5 4 ) H._.)._.FXFXFXFXFXFXFXFXFX",
"FXFXFXFXFXFXFXFXQ.).'.'.h.0 q x.&.=.5.V.@XaXcXcXfXlXhXrXtX4XvX;XnXN.bXbXtXrXgXrXwX7XK.( ^ ^ =.~ :.~ 3 I F.'.'._.FXFXFXFXFXFXFXFX",
"FXFXFXFXFXFXFXFX).`.'...0 Q x.Q @.x.2.~..X{.fXpXpX=X:X-X-Xq.%.$.$.$.$.=.:.8.%X=XwX7XK.(.S.x ^ l Q 5 6 O d D.'._.FXFXFXFXFXFXFXFX",
"FXFXFXFXFXFXFXQ.`.`.s.0 0 ^ x.@.@.O..X{.{.{.pXpX:X6.e.-X:X2X2XvXvXvX<X,X5.~ 3 I V.qX5X(.H.E.E I P 6 3 3 O k D.}.'.FXFXFXFXFXFXFX",
"FXFXFXFXFXFX).}.}.C.5 0 0 q o.{ V. X~.{.{.#X2.6.oX=X%X%X%X:X:X<X>X>X;X%X%X%X#Xx.1 #  .K.E.H.E.X.w L 3 =.~ O B Y.[.'.FXFXFXFXFXFX",
"FXFXFXFXFX).[.}.Y.9 T 0 w ^ ~ V.{.H.~.(.,.%.n.#XL.XXXX+XoXoXoXoXN.N.m.m.oXXXXX@XL.V.& + P.P.Y.H.f.w L ( ( O # A ).}.'.FXFXFXFXFX",
"FXFXFXFXFX'.}.'.P 5 I } ! P c.E.H.K.E.{ :.P.L.V.V.n.V.XX5.5.8.8.m.8.m.4.v.n.x.x.V.V.S.Z . i.H.H.D.s.8 j 7 +.= = X.}.[.FXFXFXFXFX",
"FXFXFXFX_.}.}.s.5 T | x !  .W.F.L.S.~ O.P.Z.C.x.x.x.O.2.o.1.1.1.1.,.,.+.o. .O.O.h.g.C.Z.i.X n G.H.D._ k 7 O + + f D.}.`.FXFXFXFX",
"FXFXFXFX|.|.E.4 3 } } E ! W.A.S.V.q h.Z.C.j.g.h.O.o.I I } ( ( ( ( ( / ^ ' } ` ` X. ...j.Z.Z.o p D.G.D.k k O O + + n ].}.FXFXFXFX",
"FXFXFX].sX|.` 3 | l x l H.b.F.F.w s.l.C.C.X.X.X.W T E E T ! T ! ~ ! T T T R ) ) _ ] D _ i.k.k.o V b.D.Z.6 s = k | * z.sX].FXFXFX",
"FXFXFXaXsX~.3 5 s.` k h.F.F.F.P ` Z.k.i.J K K #.W W T I I I I I P I I L L U U N A A F Z u.u.b.i.. i.k.k.p.z : z ` + p aXsXFXFXFX",
"FXFX].dXdX#.3 8 5 l x I.A.b...l Z.C.C.K K K D W W L L j j j 8 j l j j s d d v M B m C F G u.i.j.G X D.D.k.f B : = + & c.dXeXFXFX",
"FXFXfXkX7X4 6  .z l l.b.D.l.5 k.C.X.W K F D A U M j s s < 8 8 8 8 8 < < s s d d v B m V Z G u.i.b.% f i.b.a.k f  .>   B dXfXFXFX",
"FX7XfXkXV.4 ' 5 T l I.b.W.l | k.i.A K D D C M v p s < 1 1 1 : 1 1 1 < < f i p a a g c m V Z G u.j.k.. l.T.i.d | Y d   ; $XkXFXFX",
"FXqXzXkXE W  .4 k [ b.T.A.5 b.j.X.W F D m m v v p < < , : : : : : 1 , , , ; i p y p c c V V F J u.l.p r T.b.g._ < * W o v.zXfXFX",
"FXjXzXjX6 3 U R 7 F.b.T.| | j.a.K K D V m b v p , , : 2 : : & * : 2 ; ; ; , , r r t t v c v V F u.j.f.. G.I.A.| Y d # . M VXjXFX",
"FXlXVX&XO 3 9 Y z F.b.I.4 a.j.a.K K D m b a p , , 2 2 * & & & : - * ; $ % r $ e r y t t c c M Z G a.l.@ G ^.S.[ _ f d   % hXlXFX",
"FXBXVXn.O 6 z W | z.b.z.4 l.d.u.K D m m b a p , - * * & & & & * - 2 - % $ $ h r e r r t c c p Z F p.z.C 2 ^.F.c.] B N X 2 %XVXFX",
"uXCXCX} O L z | g.b.L.| k j.a.G K D m b v p , , 2 & & & & & 2 - ; , % $ $ e e $ e r r t t c v B S ] a.a.. K.K.L.[ > X   @ oXCXuX",
"hXZXVXQ O 7 | R b.l.b.x s.z.d.u.D V m b p p , 2 2 * & & @ 2 2 - ; h h e e e e e e r r r t u n g Z G d.l.  A.5XL...< p y X O.ZXhX",
"BXZXNXw O 6 s.z I.l.b.6 d.d.d.S D m b b t i , 2 * 2 & @ 2 2 2 , ; h y y e e e e e e e r y u g d Z u.d.l.# j.5XR...M o . . } AXBX",
"MXAXNX5 O 6 d.z I.z.b.O z.l.v.v.X.A m b p D #.2 & #.W W W V.V.X.[ d.C e y e ] ] [ a % r y y _ | C F a.j., p.5X/...B A J . R AXMX",
"NXAXNX3 O 4 d.z I.z.l.O s.c.&.n.=.O. .+.#.} 2.{ T x.XX( O.O.I  .v.k c.v.S x.v.@.+.+.U { 4.4.3.<.@.4.*X*Xn ] ~.6Xd.Y & , . I AXNX",
"MXAXNX3 R V...z I.l.b.O z.J.q x.1.8.( ;XQ oX&.1.:.( 2.( 2.,.2.o.4.} M.' c.s.[ `  .k x.E } +.o.o.V.~ 4.,.m G 5X].s.Y o   . k AXMX",
"MXZXBX4 * ' [ z I.l.b.O g.XX5 3.Q 8.&.;X>XoXQ ( ( ( ! E } #.E #.s.k _ _ ' ] ) Y B ) ) L Y Y W W h.l #.E p X.5X7Xd.Y o   . P ZXBX",
"hXZXBXw 4 7 | z b.b.b.3 g.c.x.@.O.A #.#.#.W #.W L W v W T W W 2 h _ n G h H H V H c m K k.j.f.K y.J k.k.- a.5X6Xg.B o . . | ZXhX",
"jXCXlXQ = W T k b.z.J.8 ..z.a.J D v m v a p p 2 2 & & & & 2 * 2 ; h h n H y e e $ e e r t t c V S J d.z.+ A.6X5Xg.k + h   4.CXjX",
"qXCXVXT O E E R g.l.b.| | k.u.J K v m m v p p 2 2 * 2 & & & & * : ; % ; h h $ e $ r r r t u n V S J a.l.X F.5XR.g.f o . @ 5.CXqX",
"FXVXVXv.O z } R | l.b.d.w l.f.p.K I m m b a p , - 2 * & * & & & * % % % $ h $ $ , r r t t b m H F y.j.] @ /.R.K.g.7 o   > @XzXFX",
"FXjXzX#XO 3 7 k x b.I.b.6 l.j.a.K W B m m v p 1 , : * * * * & * * * > - ; ; % h r r y t c n V Z G a.l.s t Q.K.l.s.; X   % rXjXFX",
"FXjXzXfX3 ..} z z b.b.^.z [ z.a.y.K D D m b v p , , : : * : * : : > > ; ; ; h h r y p u c b Z F p.f.b.X j.^.A.v.[ d Z @ p kXjXFX",
"FXeXkXdXP 3 3 7 k s.l.T.d.z b.k.y.X.K D m m v v s < 1 : : : : * : : : ; , , r i i p u c c n F K u.b.Z X W.F.z.h.Y > u.@ [ kXqXFX",
"FXeXdXdXx.3 U o.l l S.F.F.9 s.b.i.y.K K D W B v v s s < < 1 1 1 1 1 < < < < p p a v b V a Z G y.j.b.@ u.G.k.| ..| d X ; J.dX7XFX",
"FXFXaXdX6X3 9 P 9 z g.l.b.s.l b.C.p.X.K K D D I B j s s < 1 8 9 8 8 f f < d d v g B m V Z K y.i.b.C X b.k.p.) | d M X p fXeXFXFX",
"FXFX].sXsXR 6 l 5 T l F.b.F.l +.P.C.i.y.K K K W W I I L I j j j l l j j s L v v B C V Z K y.u.i.b.X i.j.i.z | A ] @ > ..sX].FXFX",
"FXFXFX|.|.K.4 V.^ 9 P s.C.A.P.0 x.P.C.i.X.#.#.K W E E T I I I I I I I I U U B Y A A F K y.y.k.D.% y b.b.] k k ] p.+ f (.|.FXFXFX",
"FXFXFX].|.|.U 5 5 5 T w H.A.C.V.I V.C.C.i.#.X. .E W ^ ^ ( ~ ! ! ~ ~ ! T T E W W _ _ X.y.i.C.D.m @ D.D.i.8 Y U U : ; F |._.FXFXFX",
"FXFXFXFX}.}.H.6 5 5 5 T ! H.P.H.#.! P.Z.C.f.#.@.O.o.} { { { ( :.=.( ( / ^ } #.#.....f.j.C.P.V X G.S.D.' ) = ] ] = g Q.}.FXFXFXFX",
"FXFXFXFX`.}.}.' 5 5 Q x !  .P.P.K.@.&.P.P.P.V.x.x.x.5.5.+.,.2.1.<.1.2.o.+.+.@.O.h.g.C.A.P.m X G.K.Y.h.Y 7 < : < v u.}._.FXFXFXFX",
"FXFXFXFXFX`.}.Q.9 ^ ^ x P ! g.S.H.~.x.~ V.K.J.J.V.XXXX8.8.8.8.8.9.8.8.5.,.o.+.c.V.V.P.S.p % ~./.~.g.I j O = #.: D `.'.FXFXFXFXFX",
"FXFXFXFXFX_.[.}.D.5 0 5.,.~ Q c.P.~.Y.L.*.2.K.K.#X#X@X+XOXOX;X;X-X-XoXoX+XXXXXXX#XK.O.- J {.pX~.h.z j 3 O O = N Y.}.Q.FXFXFXFXFX",
"FXFXFXFXFXFX_.}.`.s.5 ~ x 0 ~ ~ O.Y.Y.~.(.5.;.oX=X=X=X,X,X:X<X<X<X<X:X:X%X%X&X=Xx.M R ~.fX{.K. .P I 9 6 = O M k.`.).FXFXFXFXFXFX",
"FXFXFXFXFXFXFX_.`.`.} 0 0 0 q ~ ( { R.H.(.~.5Xm.>.m.:X4X4X3X2XvXvXvX3X3X4XOX,.l I $XfXaX/.S.| ^ I 9 X.] O k y.`.).FXFXFXFXFXFXFX",
"FXFXFXFXFXFXFXFX_.`.Q.} 0 0 q :.~ o.&.J.~.~.7X5XwX,X-Xt.w.e.e.e.e.q.<.=.w w 4.=XjXfXpXK.c.~ v.| P T I 4 L J _.'.!.FXFXFXFXFXFXFX",
"FXFXFXFXFXFXFXFX_._._._.} q 8.x 8.=.o.,.=.K.5X9XqXwX=X4X3X3X<Xe.r.e.<X3X3XhXgXjXpX=X#XO.x.c.| x 9  .4 L X._.).!.FXFXFXFXFXFXFXFX",
"FXFXFXFXFXFXFXFXFX)._._.Q.g.q $.8.>.:.=.@.1.<.#X=XrXgXhXhX4X3XmXnXvXbXhXhXhXrX&X*XM.$XK.v.} w 0 5 6 W f._.Q.!.FXFXFXFXFXFXFXFXFX",
"FXFXFXFXFXFXFXFXFXFXQ.Q._.Q.S.Q q $.oXN.%.=.3.3.>.9.:X4X3XmXnXDXnXnXbXvX2X1Xm.M.iX$Xn.:.Q } E 0 9 ` A.Q.Q.!.FXFXFXFXFXFXFXFXFXFX",
"FXFXFXFXFXFXFXFXFXFXFXFXQ.Q.Q.E.+.$.*.*.6.7.%.;.6.w.N.e.w.q.q.q.0.t.t.9.-X;X%XM.,.=.v.v.q } ^ R ..Y.Q.Q.FXFXFXFXFXFXFXFXFXFXFXFX",
"FXFXFXFXFXFXFXFXFXFXFXFXFX).Q.W.Q.L.:.$.;.%.N.-X;.;.;.t.q.B.B.B.r.r.N.7.7.<.m.<.,.=./ x q !  .A.!.!.!.FXFXFXFXFXFXFXFXFXFXFXFXFX",
"FXFXFXFXFXFXFXFXFXFXFXFXFXFXQ.Q.W.W.W.J.,.%.N.w.;.-.-.-.0.q.0.0.0.w.%X6.m.;.5.,.*.+.x =.@.l.U.W.!.W.FXFXFXFXFXFXFXFXFXFXFXFXFXFX",
"FXFXFXFXFXFXFXFXFXFXFXFXFXFXFXFXQ.Q.W.W.W.R.M.>.;.;.-.t.t.e.q.0.0.e.+X-.4.%.%.%.=.2.M.J.U.T.^.!.FXFXFXFXFXFXFXFXFXFXFXFXFXFXFXFX",
"FXFXFXFXFXFXFXFXFXFXFXFXFXFXFXFXFXFXQ.^.U.T.T.^.$X*XN.e.0.0.0.0.t.-.-.t.w.9.m.XXJ.I.U.I.^.^.FXFXFXFXFXFXFXFXFXFXFXFXFXFXFXFXFXFX",
"FXFXFXFXFXFXFXFXFXFXFXFXFXFXFXFXFXFXFXFX/./.T.U.I.U.I.R.5X9X&X&X&X&X&X$XL.K.I.U.R.^././.FXFXFXFXFXFXFXFXFXFXFXFXFXFXFXFXFXFXFXFX",
"FXFXFXFXFXFXFXFXFXFXFXFXFXFXFXFXFXFXFXFXFXFX/.6X6X6X^.I.I.I.I.I.I.I.I.I.I.^.6X6X6X/.FXFXFXFXFXFXFXFXFXFXFXFXFXFXFXFXFXFXFXFXFXFX",
"FXFXFXFXFXFXFXFXFXFXFXFXFXFXFXFXFXFXFXFXFXFXFXFXFXFXFX0X0X0X8X8X8X8X8X0XqXFXFXFXFXFXFXFXFXFXFXFXFXFXFXFXFXFXFXFXFXFXFXFXFXFXFXFX"
};
